<svg width="120" height="120" viewBox="0 0 120 120" fill="none" xmlns="http://www.w3.org/2000/svg">
<path d="M60 120C93.1371 120 120 93.1371 120 60C120 26.8629 93.1371 0 60 0C26.8629 0 0 26.8629 0 60C0 93.1371 26.8629 120 60 120Z" fill="#263740"/>
<path d="M3.65814 80.6738C12.0835 103.625 34.1288 120 60 120C60.645 120 61.2825 119.972 61.9228 119.951C53.4975 97.0003 31.4522 80.625 5.58095 80.625C4.93689 80.625 4.29845 80.6531 3.65814 80.6738Z" fill="#E6E6E6"/>
<path d="M62.0897 37.8703C60.2419 35.5528 55.0556 36.6562 49.1213 40.6266C44.9972 43.5366 38.1244 55.8412 37.3791 58.7109C36.6337 61.5806 41.9747 60.8737 43.1175 60.2016C44.9259 59.1394 50.0316 51.2766 50.5416 50.4919C51.0525 49.7062 54.4312 49.6641 57.0262 49.1128C57.7697 46.2431 61.0697 39.4425 62.0897 37.8703Z" fill="#CC584C"/>
<path d="M82.5318 51.1472C85.4025 51.8916 86.504 57.0788 85.2881 64.1147C84.3056 69.0666 75.8606 80.3503 73.545 82.1981C71.2256 84.0488 69.7003 78.8803 69.8484 77.565C70.0837 75.4791 75.1894 67.6191 75.7003 66.8325C76.2112 66.0469 74.8734 62.9428 74.3203 60.3488C76.6397 58.4972 81.5109 52.7184 82.5318 51.1472Z" fill="#CC584C"/>
<path d="M100.906 0.478151C98.5453 -1.05372 83.22 0.172526 71.4731 18.256C61.7719 33.196 56.2378 48.6028 56.0025 50.686C58.3622 52.2197 64.6519 56.3025 64.6519 56.3025C64.6519 56.3025 70.9425 60.3863 73.3013 61.9181C75.1106 60.8569 87.4444 48.7463 96.6375 34.5938C108.379 16.5085 103.262 2.01096 100.906 0.478151Z" fill="#E6E6E6"/>
<path d="M85.5862 33.4406C90.7639 33.4406 94.9612 29.2433 94.9612 24.0656C94.9612 18.8879 90.7639 14.6906 85.5862 14.6906C80.4086 14.6906 76.2112 18.8879 76.2112 24.0656C76.2112 29.2433 80.4086 33.4406 85.5862 33.4406Z" fill="#263740"/>
<path d="M82.5216 28.7831C79.9219 27.0919 79.1794 23.6034 80.8669 21.0019C82.5581 18.4003 86.0456 17.6587 88.65 19.3462C91.2488 21.0366 91.9903 24.525 90.3038 27.1284C88.6135 29.7309 85.126 30.4725 82.5216 28.7831Z" fill="#C2E2F2"/>
<path d="M94.7775 9.91313C97.665 11.7881 100.823 12.9122 104.024 13.3425C104.354 6.14438 102.209 1.32563 100.906 0.475315C99.5981 -0.37031 94.3238 -0.368435 87.8822 2.85844C89.5772 5.60813 91.89 8.03719 94.7775 9.91313Z" fill="#CC584C"/>
<path d="M71.8106 67.6566C71.2481 68.5219 70.0809 68.7703 69.2156 68.2087L51.9187 56.9775C51.0534 56.4141 50.805 55.2469 51.3666 54.3816L53.4103 51.2372C53.9728 50.3728 55.1391 50.1234 56.0053 50.6859L73.3012 61.9191C74.1675 62.4816 74.415 63.6478 73.8544 64.515L71.8106 67.6566Z" fill="#CC584C"/>
<path d="M58.6781 56.895C58.1156 57.7622 57.4256 58.8609 56.7056 60.0844L65.2172 65.6119C66.0431 64.4559 66.765 63.3759 67.3284 62.5097C67.8919 61.6434 68.5809 60.5447 69.3009 59.3222L60.7913 53.7947C59.9634 54.9497 59.2397 56.0278 58.6781 56.895Z" fill="#BF5347"/>
<path d="M53.4909 57.9966C47.2875 67.5478 39.4762 86.9006 43.6012 89.5791C47.7243 92.2575 62.2256 77.2528 68.43 67.6969L53.4909 57.9966Z" fill="#FFD464"/>
<path d="M55.0631 59.0175C48.8597 68.5688 46.4709 78.03 49.7269 80.1441C52.9837 82.2591 60.6534 76.2272 66.8569 66.6769L55.0631 59.0175Z" fill="#F2B255"/>
<path d="M71.6922 46.3389C70.1724 45.352 65.0545 50.5361 60.2612 57.9179C55.4679 65.2997 52.8143 72.0839 54.3341 73.0709C55.854 74.0578 60.9719 68.8737 65.7652 61.4918C70.5585 54.11 73.2121 47.3258 71.6922 46.3389Z" fill="#CC584C"/>
<path d="M23.091 86.5454C20.2131 85.3758 17.1689 86.1774 16.2917 88.3359C15.4144 90.4943 17.0364 93.1923 19.9143 94.3619C22.7923 95.5316 25.8364 94.73 26.7137 92.5715C27.5909 90.413 25.969 87.7151 23.091 86.5454Z" fill="#CCCCCC"/>
<path d="M21.8063 94.3772C18.9281 93.2081 17.3053 90.51 18.1828 88.3509C18.6844 87.1153 19.9078 86.3409 21.3928 86.1103C19.1072 85.7822 17.011 86.6213 16.3078 88.3509C15.4303 90.51 17.0531 93.2081 19.9313 94.3772C21.1622 94.8769 22.4119 94.9969 23.521 94.8263C22.9519 94.7438 22.3772 94.6097 21.8063 94.3772Z" fill="#B3B3B3"/>
<path d="M38.5076 92.6535C37.0794 91.1999 35.0381 90.8895 33.9482 91.9602C32.8583 93.031 33.1326 95.0775 34.5608 96.5311C35.989 97.9848 38.0302 98.2952 39.1201 97.2244C40.21 96.1536 39.9357 94.1072 38.5076 92.6535Z" fill="#CCCCCC"/>
<path d="M35.6728 96.991C34.2469 95.5388 33.9731 93.4922 35.0634 92.4206C35.6859 91.8066 36.6234 91.6603 37.5787 91.9078C36.2887 91.1156 34.8084 91.0716 33.9347 91.9294C32.8443 93.0028 33.1181 95.0475 34.545 96.5006C35.1553 97.1222 35.8781 97.5216 36.5906 97.7053C36.2681 97.5113 35.9569 97.2806 35.6728 96.991Z" fill="#B3B3B3"/>
<path d="M35.7465 100.83C32.7727 99.9898 29.8513 101.117 29.2214 103.347C28.5915 105.578 30.4916 108.067 33.4655 108.907C36.4393 109.746 39.3607 108.619 39.9906 106.389C40.6205 104.158 38.7204 101.67 35.7465 100.83Z" fill="#CCCCCC"/>
<path d="M35.3541 108.709C32.3831 107.869 30.4837 105.379 31.1156 103.148C31.4737 101.872 32.5987 100.975 34.0416 100.583C31.7475 100.51 29.7647 101.568 29.2594 103.355C28.6284 105.584 30.5287 108.075 33.5016 108.914C34.7728 109.274 36.0216 109.254 37.1006 108.965C36.5316 108.946 35.9456 108.877 35.3541 108.709Z" fill="#B3B3B3"/>
<path d="M26.2059 19.6875C26.2059 23.4375 25.2684 24.375 21.5184 24.375C25.2684 24.375 26.2059 25.3125 26.2059 29.0625C26.2059 25.3125 27.1434 24.375 30.8934 24.375C27.1434 24.375 26.2059 23.4375 26.2059 19.6875Z" fill="#FFD464"/>
<path d="M14.0184 46.875C14.0184 50.625 13.0809 51.5625 9.33093 51.5625C13.0809 51.5625 14.0184 52.5 14.0184 56.25C14.0184 52.5 14.9559 51.5625 18.7059 51.5625C14.9559 51.5625 14.0184 50.625 14.0184 46.875Z" fill="#FFD464"/>
<path d="M27.1434 63.75C27.1434 67.5 26.2059 68.4375 22.4559 68.4375C26.2059 68.4375 27.1434 69.375 27.1434 73.125C27.1434 69.375 28.0809 68.4375 31.8309 68.4375C28.0809 68.4375 27.1434 67.5 27.1434 63.75Z" fill="#FFD464"/>
<path d="M76.8309 94.6875C76.8309 98.4375 75.8934 99.375 72.1434 99.375C75.8934 99.375 76.8309 100.312 76.8309 104.062C76.8309 100.312 77.7684 99.375 81.5184 99.375C77.7684 99.375 76.8309 98.4375 76.8309 94.6875Z" fill="#FFD464"/>
<path d="M110.581 73.125C110.581 76.875 109.643 77.8125 105.893 77.8125C109.643 77.8125 110.581 78.75 110.581 82.5C110.581 78.75 111.518 77.8125 115.268 77.8125C111.518 77.8125 110.581 76.875 110.581 73.125Z" fill="#FFD464"/>
<path d="M107.768 40.3125C107.768 44.0625 106.831 45 103.081 45C106.831 45 107.768 45.9375 107.768 49.6875C107.768 45.9375 108.706 45 112.456 45C108.706 45 107.768 44.0625 107.768 40.3125Z" fill="#FFD464"/>
<path d="M60.8934 6.5625C60.8934 10.3125 59.9559 11.25 56.2059 11.25C59.9559 11.25 60.8934 12.1875 60.8934 15.9375C60.8934 12.1875 61.8309 11.25 65.5809 11.25C61.8309 11.25 60.8934 10.3125 60.8934 6.5625Z" fill="#FFD464"/>
<path d="M44.9559 26.25C44.9559 30 44.0184 30.9375 40.2684 30.9375C44.0184 30.9375 44.9559 31.875 44.9559 35.625C44.9559 31.875 45.8934 30.9375 49.6434 30.9375C45.8934 30.9375 44.9559 30 44.9559 26.25Z" fill="#FFD464"/>
</svg>
