<?xml version="1.0" encoding="UTF-8"?>
<svg xmlns="http://www.w3.org/2000/svg" xmlns:xlink="http://www.w3.org/1999/xlink" width="50px" height="50px" viewBox="0 0 50 50" version="1.1">
<g id="surface1">
<path style=" stroke:none;fill-rule:nonzero;fill:rgb(14.901961%,21.568627%,25.098039%);fill-opacity:1;" d="M 50 25 C 50 38.808594 38.808594 50 25 50 C 11.191406 50 0 38.808594 0 25 C 0 11.191406 11.191406 0 25 0 C 38.808594 0 50 11.191406 50 25 Z M 50 25 "/>
<path style=" stroke:none;fill-rule:nonzero;fill:rgb(90.196078%,90.196078%,90.196078%);fill-opacity:1;" d="M 1.523438 33.613281 C 5.035156 43.175781 14.21875 50 25 50 C 25.269531 50 25.535156 49.988281 25.800781 49.980469 C 22.289062 40.417969 13.105469 33.59375 2.324219 33.59375 C 2.058594 33.59375 1.789062 33.605469 1.523438 33.613281 Z M 1.523438 33.613281 "/>
<path style=" stroke:none;fill-rule:nonzero;fill:rgb(80%,34.509804%,29.803922%);fill-opacity:1;" d="M 25.871094 15.78125 C 25.101562 14.8125 22.941406 15.273438 20.46875 16.929688 C 18.75 18.140625 15.886719 23.265625 15.574219 24.460938 C 15.265625 25.660156 17.488281 25.363281 17.964844 25.085938 C 18.71875 24.640625 20.847656 21.367188 21.058594 21.039062 C 21.273438 20.710938 22.679688 20.695312 23.761719 20.464844 C 24.070312 19.269531 25.445312 16.433594 25.871094 15.78125 Z M 25.871094 15.78125 "/>
<path style=" stroke:none;fill-rule:nonzero;fill:rgb(80%,34.509804%,29.803922%);fill-opacity:1;" d="M 34.386719 21.3125 C 35.585938 21.621094 36.042969 23.78125 35.535156 26.714844 C 35.128906 28.777344 31.609375 33.480469 30.644531 34.25 C 29.675781 35.019531 29.042969 32.867188 29.105469 32.320312 C 29.203125 31.449219 31.328125 28.175781 31.542969 27.847656 C 31.753906 27.519531 31.199219 26.226562 30.96875 25.144531 C 31.933594 24.375 33.960938 21.964844 34.386719 21.3125 Z M 34.386719 21.3125 "/>
<path style=" stroke:none;fill-rule:nonzero;fill:rgb(90.196078%,90.196078%,90.196078%);fill-opacity:1;" d="M 42.042969 0.199219 C 41.0625 -0.4375 34.675781 0.0703125 29.78125 7.605469 C 25.738281 13.832031 23.433594 20.25 23.335938 21.121094 C 24.316406 21.757812 26.9375 23.460938 26.9375 23.460938 C 26.9375 23.460938 29.558594 25.160156 30.542969 25.800781 C 31.296875 25.355469 36.433594 20.3125 40.265625 14.414062 C 45.15625 6.878906 43.027344 0.835938 42.042969 0.199219 Z M 42.042969 0.199219 "/>
<path style=" stroke:none;fill-rule:nonzero;fill:rgb(14.901961%,21.568627%,25.098039%);fill-opacity:1;" d="M 39.566406 10.027344 C 39.566406 12.183594 37.816406 13.933594 35.660156 13.933594 C 33.503906 13.933594 31.753906 12.183594 31.753906 10.027344 C 31.753906 7.871094 33.503906 6.121094 35.660156 6.121094 C 37.816406 6.121094 39.566406 7.871094 39.566406 10.027344 Z M 39.566406 10.027344 "/>
<path style=" stroke:none;fill-rule:nonzero;fill:rgb(76.078431%,88.627451%,94.901961%);fill-opacity:1;" d="M 34.382812 11.992188 C 33.300781 11.289062 32.992188 9.835938 33.695312 8.75 C 34.398438 7.667969 35.851562 7.359375 36.9375 8.0625 C 38.019531 8.765625 38.328125 10.21875 37.625 11.304688 C 36.921875 12.386719 35.46875 12.695312 34.382812 11.992188 Z M 34.382812 11.992188 "/>
<path style=" stroke:none;fill-rule:nonzero;fill:rgb(80%,34.509804%,29.803922%);fill-opacity:1;" d="M 39.492188 4.128906 C 40.695312 4.910156 42.007812 5.378906 43.34375 5.558594 C 43.480469 2.558594 42.585938 0.550781 42.042969 0.199219 C 41.5 -0.15625 39.300781 -0.152344 36.617188 1.191406 C 37.324219 2.335938 38.289062 3.347656 39.492188 4.128906 Z M 39.492188 4.128906 "/>
<path style=" stroke:none;fill-rule:nonzero;fill:rgb(80%,34.509804%,29.803922%);fill-opacity:1;" d="M 29.921875 28.191406 C 29.6875 28.550781 29.199219 28.65625 28.839844 28.421875 L 21.632812 23.742188 C 21.273438 23.507812 21.167969 23.019531 21.402344 22.660156 L 22.253906 21.347656 C 22.488281 20.988281 22.976562 20.882812 23.335938 21.117188 L 30.542969 25.800781 C 30.902344 26.035156 31.007812 26.519531 30.773438 26.882812 Z M 29.921875 28.191406 "/>
<path style=" stroke:none;fill-rule:nonzero;fill:rgb(74.901961%,32.54902%,27.843137%);fill-opacity:1;" d="M 24.449219 23.707031 C 24.214844 24.066406 23.925781 24.523438 23.628906 25.035156 L 27.171875 27.339844 C 27.519531 26.855469 27.820312 26.40625 28.054688 26.046875 C 28.289062 25.683594 28.574219 25.226562 28.875 24.71875 L 25.328125 22.414062 C 24.984375 22.894531 24.683594 23.34375 24.449219 23.707031 Z M 24.449219 23.707031 "/>
<path style=" stroke:none;fill-rule:nonzero;fill:rgb(100%,83.137255%,39.215686%);fill-opacity:1;" d="M 22.289062 24.164062 C 19.703125 28.144531 16.449219 36.207031 18.167969 37.324219 C 19.886719 38.441406 25.925781 32.1875 28.511719 28.207031 Z M 22.289062 24.164062 "/>
<path style=" stroke:none;fill-rule:nonzero;fill:rgb(94.901961%,69.803922%,33.333333%);fill-opacity:1;" d="M 22.941406 24.589844 C 20.359375 28.570312 19.363281 32.511719 20.71875 33.394531 C 22.078125 34.273438 25.273438 31.761719 27.855469 27.78125 Z M 22.941406 24.589844 "/>
<path style=" stroke:none;fill-rule:nonzero;fill:rgb(80%,34.509804%,29.803922%);fill-opacity:1;" d="M 25.109375 24.132812 C 23.113281 27.207031 22.007812 30.035156 22.640625 30.445312 C 23.273438 30.855469 25.40625 28.699219 27.402344 25.621094 C 29.398438 22.546875 30.503906 19.71875 29.871094 19.308594 C 29.238281 18.898438 27.105469 21.058594 25.109375 24.132812 Z M 25.109375 24.132812 "/>
<path style=" stroke:none;fill-rule:nonzero;fill:rgb(80%,80%,80%);fill-opacity:1;" d="M 6.789062 36.804688 C 6.421875 37.707031 7.097656 38.832031 8.296875 39.316406 C 9.496094 39.804688 10.765625 39.472656 11.128906 38.570312 C 11.496094 37.671875 10.820312 36.546875 9.621094 36.0625 C 8.421875 35.574219 7.152344 35.90625 6.789062 36.804688 Z M 6.789062 36.804688 "/>
<path style=" stroke:none;fill-rule:nonzero;fill:rgb(70.196078%,70.196078%,70.196078%);fill-opacity:1;" d="M 9.085938 39.324219 C 7.886719 38.835938 7.210938 37.710938 7.578125 36.8125 C 7.785156 36.296875 8.296875 35.976562 8.914062 35.878906 C 7.960938 35.742188 7.085938 36.09375 6.796875 36.8125 C 6.429688 37.710938 7.105469 38.835938 8.304688 39.324219 C 8.816406 39.53125 9.339844 39.582031 9.800781 39.511719 C 9.5625 39.476562 9.324219 39.421875 9.085938 39.324219 Z M 9.085938 39.324219 "/>
<path style=" stroke:none;fill-rule:nonzero;fill:rgb(80%,80%,80%);fill-opacity:1;" d="M 14.144531 38.316406 C 13.691406 38.761719 13.804688 39.617188 14.398438 40.222656 C 14.996094 40.828125 15.847656 40.957031 16.300781 40.511719 C 16.753906 40.0625 16.640625 39.210938 16.042969 38.605469 C 15.449219 38 14.597656 37.871094 14.144531 38.316406 Z M 14.144531 38.316406 "/>
<path style=" stroke:none;fill-rule:nonzero;fill:rgb(70.196078%,70.196078%,70.196078%);fill-opacity:1;" d="M 14.863281 40.414062 C 14.269531 39.808594 14.15625 38.953125 14.609375 38.507812 C 14.867188 38.253906 15.257812 38.191406 15.65625 38.296875 C 15.121094 37.964844 14.503906 37.945312 14.140625 38.304688 C 13.683594 38.75 13.800781 39.601562 14.394531 40.207031 C 14.648438 40.46875 14.949219 40.632812 15.246094 40.710938 C 15.113281 40.628906 14.980469 40.535156 14.863281 40.414062 Z M 14.863281 40.414062 "/>
<path style=" stroke:none;fill-rule:nonzero;fill:rgb(80%,80%,80%);fill-opacity:1;" d="M 12.175781 43.0625 C 11.914062 43.992188 12.703125 45.027344 13.945312 45.378906 C 15.183594 45.726562 16.398438 45.257812 16.664062 44.328125 C 16.925781 43.398438 16.132812 42.363281 14.894531 42.011719 C 13.65625 41.664062 12.4375 42.132812 12.175781 43.0625 Z M 12.175781 43.0625 "/>
<path style=" stroke:none;fill-rule:nonzero;fill:rgb(70.196078%,70.196078%,70.196078%);fill-opacity:1;" d="M 14.730469 45.296875 C 13.492188 44.945312 12.703125 43.90625 12.964844 42.976562 C 13.113281 42.445312 13.582031 42.074219 14.183594 41.910156 C 13.226562 41.878906 12.402344 42.320312 12.191406 43.0625 C 11.929688 43.992188 12.71875 45.03125 13.960938 45.382812 C 14.488281 45.53125 15.007812 45.523438 15.457031 45.402344 C 15.222656 45.394531 14.976562 45.367188 14.730469 45.296875 Z M 14.730469 45.296875 "/>
<path style=" stroke:none;fill-rule:nonzero;fill:rgb(100%,83.137255%,39.215686%);fill-opacity:1;" d="M 10.917969 8.203125 C 10.917969 9.765625 10.527344 10.15625 8.964844 10.15625 C 10.527344 10.15625 10.917969 10.546875 10.917969 12.109375 C 10.917969 10.546875 11.308594 10.15625 12.871094 10.15625 C 11.308594 10.15625 10.917969 9.765625 10.917969 8.203125 Z M 10.917969 8.203125 "/>
<path style=" stroke:none;fill-rule:nonzero;fill:rgb(100%,83.137255%,39.215686%);fill-opacity:1;" d="M 5.839844 19.53125 C 5.839844 21.09375 5.449219 21.484375 3.886719 21.484375 C 5.449219 21.484375 5.839844 21.875 5.839844 23.4375 C 5.839844 21.875 6.230469 21.484375 7.792969 21.484375 C 6.230469 21.484375 5.839844 21.09375 5.839844 19.53125 Z M 5.839844 19.53125 "/>
<path style=" stroke:none;fill-rule:nonzero;fill:rgb(100%,83.137255%,39.215686%);fill-opacity:1;" d="M 11.308594 26.5625 C 11.308594 28.125 10.917969 28.515625 9.355469 28.515625 C 10.917969 28.515625 11.308594 28.90625 11.308594 30.46875 C 11.308594 28.90625 11.699219 28.515625 13.261719 28.515625 C 11.699219 28.515625 11.308594 28.125 11.308594 26.5625 Z M 11.308594 26.5625 "/>
<path style=" stroke:none;fill-rule:nonzero;fill:rgb(100%,83.137255%,39.215686%);fill-opacity:1;" d="M 32.011719 39.453125 C 32.011719 41.015625 31.621094 41.40625 30.058594 41.40625 C 31.621094 41.40625 32.011719 41.796875 32.011719 43.359375 C 32.011719 41.796875 32.402344 41.40625 33.964844 41.40625 C 32.402344 41.40625 32.011719 41.015625 32.011719 39.453125 Z M 32.011719 39.453125 "/>
<path style=" stroke:none;fill-rule:nonzero;fill:rgb(100%,83.137255%,39.215686%);fill-opacity:1;" d="M 46.074219 30.46875 C 46.074219 32.03125 45.683594 32.421875 44.121094 32.421875 C 45.683594 32.421875 46.074219 32.8125 46.074219 34.375 C 46.074219 32.8125 46.464844 32.421875 48.027344 32.421875 C 46.464844 32.421875 46.074219 32.03125 46.074219 30.46875 Z M 46.074219 30.46875 "/>
<path style=" stroke:none;fill-rule:nonzero;fill:rgb(100%,83.137255%,39.215686%);fill-opacity:1;" d="M 44.902344 16.796875 C 44.902344 18.359375 44.511719 18.75 42.949219 18.75 C 44.511719 18.75 44.902344 19.140625 44.902344 20.703125 C 44.902344 19.140625 45.292969 18.75 46.855469 18.75 C 45.292969 18.75 44.902344 18.359375 44.902344 16.796875 Z M 44.902344 16.796875 "/>
<path style=" stroke:none;fill-rule:nonzero;fill:rgb(100%,83.137255%,39.215686%);fill-opacity:1;" d="M 25.371094 2.734375 C 25.371094 4.296875 24.980469 4.6875 23.417969 4.6875 C 24.980469 4.6875 25.371094 5.078125 25.371094 6.640625 C 25.371094 5.078125 25.761719 4.6875 27.324219 4.6875 C 25.761719 4.6875 25.371094 4.296875 25.371094 2.734375 Z M 25.371094 2.734375 "/>
<path style=" stroke:none;fill-rule:nonzero;fill:rgb(100%,83.137255%,39.215686%);fill-opacity:1;" d="M 18.730469 10.9375 C 18.730469 12.5 18.339844 12.890625 16.777344 12.890625 C 18.339844 12.890625 18.730469 13.28125 18.730469 14.84375 C 18.730469 13.28125 19.121094 12.890625 20.683594 12.890625 C 19.121094 12.890625 18.730469 12.5 18.730469 10.9375 Z M 18.730469 10.9375 "/>
</g>
</svg>
